<svg xmlns="http://www.w3.org/2000/svg" width="65.604" height="44.993" viewBox="0 0 65.604 44.993">
  <g transform="translate(0 0)">
    <path d="M35.561,10.507a6.026,6.026,0,1,0-9.3-7.569c-.286.287-24.278,29.857-24.5,30.2a6.026,6.026,0,1,0,9.3,7.568C11.345,40.417,35.337,10.846,35.561,10.507Z" transform="translate(1.799 1.575)" fill="#040506"/>
    <path d="M59.178,29.941a6.026,6.026,0,1,0-9.3-7.571c-.289.289-12.89,15.821-13.116,16.163a6.026,6.026,0,1,0,9.3,7.571C46.351,45.816,58.952,30.283,59.178,29.941Z" transform="translate(-7.935 -3.828)" fill="#040506"/>
    <g transform="translate(51.118 0.583)">
      <circle cx="6.027" cy="6.027" r="6.027" transform="matrix(0.228, -0.974, 0.974, 0.228, 0, 11.736)" fill="#040506"/>
    </g>
    <g transform="translate(0 0)">
      <circle cx="6.027" cy="6.027" r="6.027" transform="matrix(0.929, -0.369, 0.369, 0.929, 0, 4.449)" fill="#040506"/>
    </g>
  </g>
</svg>
