<svg xmlns="http://www.w3.org/2000/svg" width="52.032" height="52.032" viewBox="0 0 52.032 52.032">
  <path d="M2469.808,514.245h-22a15.018,15.018,0,0,0-15.018,15.018v22a15.018,15.018,0,0,0,15.018,15.019h22a15.018,15.018,0,0,0,15.018-15.019v-22a15.018,15.018,0,0,0-15.018-15.018m10.227,37.4a9.969,9.969,0,0,1-9.969,9.969h-22.51a9.969,9.969,0,0,1-9.969-9.969v-22.51a9.969,9.969,0,0,1,9.969-9.969h22.51a9.969,9.969,0,0,1,9.969,9.969Z" transform="translate(-2432.794 -514.245)" fill="#fff"/>
  <path d="M2630.359,700.221a13.5,13.5,0,1,0,13.5,13.5,13.5,13.5,0,0,0-13.5-13.5m0,22.252a8.751,8.751,0,1,1,8.751-8.752,8.751,8.751,0,0,1-8.751,8.752" transform="translate(-2604.343 -687.576)" fill="#fff"/>
  <circle cx="2.38" cy="2.38" r="2.38" transform="translate(36.663 11.399) rotate(-45)" fill="#fff"/>
</svg>
